<?xml version="1.0" encoding="UTF-8"?>
<svg id="Ebene_1" data-name="Ebene 1" xmlns="http://www.w3.org/2000/svg" viewBox="0 0 417.81 188.42">
  <defs>
    <style>
      .cls-1 {
        stroke-linecap: square;
        stroke-width: 23px;
      }

      .cls-1, .cls-2 {
        stroke: #000;
        stroke-miterlimit: 10;
      }

      .cls-3, .cls-2 {
        fill: #fff;
      }

      .cls-2 {
        stroke-linecap: round;
        stroke-width: .75px;
      }
    </style>
  </defs>
  <g>
    <path class="cls-1" d="M139.32,28.42c.3,.48,.46,1.13,.46,1.94,0,1.2-.3,2.3-.91,3.31l-22.96,37.58c-.56,.96-1.41,1.78-2.55,2.45-1.14,.67-2.19,1.01-3.16,1.01H59.11c-1.42,0-2.13-.58-2.13-1.73,0-.53,.18-1.1,.53-1.73l19.01-31.1c.56-.96,1.41-1.78,2.55-2.45,1.14-.67,2.22-1.01,3.23-1.01h25.54c.96,0,2-.34,3.13-1.01,1.13-.68,1.98-1.5,2.53-2.46l12.2-19.85c.76-1.25,1.55-1.87,2.36-1.87,.46,0,.84,.22,1.14,.65l10.11,16.27Zm-32.07,15.2c.34-.63,.52-1.2,.52-1.73,0-1.15-.68-1.73-2.05-1.73-1.01,0-2.07,.34-3.18,1.01-1.11,.68-1.97,1.49-2.58,2.46l-14.76,24.19c-.36,.62-.54,1.2-.54,1.72,0,1.15,.68,1.73,2.05,1.73,1.01,0,2.09-.33,3.23-1.01,1.14-.67,1.99-1.49,2.55-2.45l14.76-24.19Z"/>
    <path class="cls-1" d="M154.91,59.44c-1.12,.67-1.95,1.48-2.51,2.44l-4.26,6.89c-.31,.63-.46,1.21-.46,1.75,0,1.17,.68,1.75,2.05,1.75,1.01,0,2.09-.33,3.23-1.01,1.14-.67,1.99-1.49,2.55-2.45l2.13-3.46c.56-.96,1.41-1.77,2.55-2.45,1.14-.67,2.22-1.01,3.23-1.01h18.25c1.37,0,2.05,.58,2.05,1.73,0,.53-.18,1.1-.53,1.73l-4.26,6.91c-.56,.96-1.41,1.78-2.55,2.45-1.14,.67-2.19,1.01-3.16,1.01h-51.09c-1.42,0-14.8-5.58-14.8-6.73,0-.53,12.85,3.9,13.2,3.27l4.59-34.06c.03-1.29,23.68,.6,25.34,0,1.25-.46,11.66,0,12.67,0h49.63c1.37,0-14.78-.15-14.78,1,0,.53,.36,.38,0,1l-8.51,14.78c-.56,.96-1.41,1.78-2.55,2.45-1.14,.67-2.22,1.01-3.24,1.01h-25.58c-1.02,0-2.08,.33-3.2,1Zm3.78-7.96c-.35,.63-.53,1.22-.53,1.75,0,1.17,.71,1.75,2.13,1.75,1.01,0,2.08-.34,3.19-1.01,1.11-.67,1.98-1.49,2.59-2.45l4.18-6.91c.35-.62,.53-1.2,.53-1.73,0-1.15-.69-1.73-2.06-1.73-1.02,0-2.08,.34-3.2,1-1.12,.67-1.98,1.48-2.59,2.44l-4.24,6.88Z"/>
    <path class="cls-1" d="M235.6,52.52c-1.42,0-2.13-.58-2.13-1.73,0-.53,.18-1.1,.53-1.73l2.13-3.46c.35-.62,.53-1.2,.53-1.73,0-1.15-.69-1.73-2.05-1.73-1.01,0-2.08,.34-3.2,1.01-1.12,.67-1.98,1.49-2.59,2.45l-4.24,6.88c-.37,.63-.55,1.21-.55,1.74,0,1.16,.71,1.75,2.13,1.75h25.54c1.42,0,2.13,.58,2.13,1.73,0,.53-.2,1.1-.61,1.73l-8.44,13.82c-.56,.96-1.41,1.78-2.55,2.45-1.14,.67-2.19,1.01-3.15,1.01h-51.09c-1.42,0-2.13-.58-2.13-1.73,0-.53,.18-1.1,.53-1.73l4.26-6.91c.56-.96,1.41-1.77,2.55-2.45,1.14-.67,2.22-1.01,3.23-1.01h18.25c1.37,0,2.05,.58,2.05,1.73,0,.53-.18,1.1-.53,1.73l-2.13,3.46c-.36,.62-.53,1.2-.53,1.73,0,1.15,.68,1.73,2.05,1.73,1.01,0,2.09-.33,3.23-1.01,1.14-.67,1.99-1.49,2.55-2.45l4.26-6.91c.35-.62,.53-1.2,.53-1.73,0-1.15-.71-1.73-2.13-1.73h-25.54c-1.37,0-2.05-.58-2.05-1.73,0-.53,.18-1.1,.53-1.73l8.44-13.82c.56-.96,1.41-1.78,2.55-2.45,1.14-.67,2.22-1.01,3.23-1.01h51.09c1.37,0,2.05,.58,2.05,1.73,0,.53-.18,1.1-.53,1.73l-4.26,6.91c-.56,.96-1.41,1.78-2.55,2.45-1.14,.67-2.19,1.01-3.15,1.01h-18.25Z"/>
    <path class="cls-1" d="M248.24,76.72c-1.42,0-2.13-.58-2.13-1.73,0-.53,.18-1.1,.53-1.73l19.01-31.1c.56-.96,1.41-1.78,2.55-2.45,1.14-.67,2.22-1.01,3.23-1.01h18.25c1.37,0,2.05,.58,2.05,1.73,0,.53-.18,1.1-.53,1.73l-19.01,31.1c-.56,.96-1.41,1.78-2.55,2.45-1.14,.67-2.19,1.01-3.15,1.01h-18.25Z"/>
    <path class="cls-1" d="M290.24,100c-.3-.53-.46-1.2-.46-2.02,0-1.2,9.81-17.28,10.42-18.24,.25-.48,.38-.94,.38-1.37,0-1.1-.74-1.66-2.2-1.66h-25.55c-1.42,0-2.13-.58-2.13-1.73,0-.53,.18-1.1,.53-1.73l19.01-31.1c.56-.96,1.41-1.78,2.55-2.45,1.14-.67,2.22-1.01,3.23-1.01h51.09c1.37,0,2.05,.58,2.05,1.73,0,.53-.18,1.1-.53,1.73l-4.26,6.91c-.56,.96-1.41,1.78-2.55,2.45-1.14,.67-2.19,1.01-3.16,1.01h-18.25c-1.42,0-2.13-.58-2.13-1.73,0-.53,.18-1.1,.53-1.73l2.12-3.46c.36-.62,.54-1.2,.54-1.72,0-1.15-.68-1.72-2.05-1.72-1.01,0-2.08,.34-3.19,1.01-1.12,.67-1.98,1.49-2.58,2.45l-14.75,24.19c-.36,.62-.53,1.2-.53,1.73,0,1.15,.68,1.73,2.05,1.73,1.01,0,2.09-.34,3.23-1.01,1.14-.67,1.99-1.49,2.54-2.45l6.32-10.36c.61-.96,1.47-1.77,2.59-2.45,1.11-.67,2.18-1.01,3.19-1.01h18.25c1.42,0,2.13,.58,2.13,1.73,0,.53-.2,1.1-.61,1.73l-34.21,55.61c-.76,1.25-1.57,1.87-2.43,1.87-.46,0-.81-.24-1.06-.72l-10.11-16.2Z"/>
    <path class="cls-1" d="M404.25,38.7c1.37,0,2.05,.58,2.05,1.73,0,.53-.18,1.1-.53,1.73l-19.01,31.1c-.56,.96-1.41,1.78-2.55,2.45-1.14,.67-2.19,1.01-3.16,1.01h-18.25c-1.42,0-29.69,.64-29.69-.51,0,2.14,27.74-2.32,28.09-2.94l16.88-27.65c.35-.62,.53-1.2,.53-1.73,0-1.15-.68-1.73-2.05-1.73-1.01,0-2.08,.34-3.19,1.01-1.11,.67-1.98,1.49-2.58,2.45l-16.88,27.65c-.56,.96-1.41,1.77-2.55,2.44-1.14,.67-2.19,1.01-3.15,1.01h-18.25c-1.42,0-2.13-.58-2.13-1.73,0-.53,.18-1.1,.53-1.73l19.01-31.1c.56-.96,1.41-1.78,2.55-2.45,1.14-.67,2.22-1.01,3.23-1.01h51.09Z"/>
    <path class="cls-1" d="M139.58,77.7c1.37,0,2.05,.58,2.05,1.73,0,.53-.18,1.1-.53,1.73l-19.01,31.1c-.56,.96-1.41,1.78-2.55,2.45-1.14,.67-2.19,1.01-3.16,1.01h-18.25c-1.42,0-2.13-.58-2.13-1.73,0-.53,.18-1.1,.53-1.73l16.88-27.65c.35-.62,.53-1.2,.53-1.73,0-1.15-.68-1.73-2.05-1.73-1.01,0-2.08,.34-3.19,1.01-1.11,.67-1.98,1.49-2.58,2.45l-16.88,27.65c-.56,.96-1.41,1.77-2.55,2.44-1.14,.67-2.19,1.01-3.15,1.01h-18.25c-1.42,0-2.13-.58-2.13-1.73,0-.53,.18-1.1,.53-1.73l19.01-31.1c.56-.96,1.41-1.78,2.55-2.45,1.14-.67,2.22-1.01,3.23-1.01h51.09Z"/>
    <path class="cls-1" d="M161.48,99.44c-1.12,.67-1.95,1.48-2.51,2.44l-4.26,6.89c-.31,.63-.46,1.21-.46,1.75,0,1.17,.68,1.75,2.05,1.75,1.01,0,2.09-.33,3.23-1.01,1.14-.67,1.99-1.49,2.55-2.45l2.13-3.46c.56-.96,1.41-1.77,2.55-2.45,1.14-.67,2.22-1.01,3.23-1.01h18.25c1.37,0,2.05,.58,2.05,1.73,0,.53-.18,1.1-.53,1.73l-4.26,6.91c-.56,.96-1.41,1.78-2.55,2.45-1.14,.67-2.19,1.01-3.16,1.01h-51.09c-1.42,0-2.13-.58-2.13-1.73,0-.53,.18-1.1,.53-1.73l19.01-31.1c.56-.96,1.41-1.78,2.55-2.45,1.14-.67,2.22-1.01,3.23-1.01h51.09c1.37,0,2.05,.58,2.05,1.73,0,.53-.18,1.1-.53,1.73l-8.45,13.82c-.56,.96-1.41,1.78-2.55,2.45-1.14,.67-2.22,1.01-3.24,1.01h-25.58c-1.02,0-2.08,.33-3.2,1Zm3.78-7.96c-.35,.63-.53,1.22-.53,1.75,0,1.17,.71,1.75,2.13,1.75,1.01,0,2.08-.34,3.19-1.01,1.11-.67,1.98-1.49,2.59-2.45l4.18-6.91c.35-.62,.53-1.2,.53-1.73,0-1.15-.69-1.73-2.06-1.73-1.02,0-2.08,.34-3.2,1-1.12,.67-1.98,1.48-2.59,2.44l-4.24,6.88Z"/>
    <path class="cls-1" d="M298.3,77.7c1.42,0,2.13,.58,2.13,1.73,0,.53-.2,1.1-.61,1.73l-18.93,31.1c-.56,.96-1.41,1.78-2.55,2.45-1.14,.67-2.22,1.01-3.23,1.01h-61.96l-11.56-18.5c-.25-.43-.38-1.03-.38-1.8,0-1.34,.38-2.64,1.14-3.89l6.31-10.37c.56-.96,1.41-1.78,2.55-2.45,1.14-.67,2.22-1.01,3.23-1.01h18.25c1.37,0,2.05,.58,2.05,1.73,0,.53-.18,1.1-.53,1.73l-16.88,27.65c-.35,.62-.53,1.2-.53,1.73,0,1.15,.68,1.73,2.05,1.73,1.01,0,2.09-.34,3.23-1.01,1.14-.67,1.99-1.49,2.54-2.45l16.88-27.65c.56-.96,1.41-1.77,2.55-2.44,1.14-.67,2.22-1.01,3.23-1.01h18.25c1.37,0,2.05,.57,2.05,1.72,0,.53-.19,1.1-.57,1.72l-16.82,27.68c-.36,.62-.55,1.2-.55,1.72,0,1.15,.68,1.72,2.05,1.72,1.01,0,2.08-.33,3.19-1.01,1.11-.67,1.98-1.49,2.59-2.45l16.8-27.65c.61-.96,1.47-1.78,2.59-2.45,1.11-.67,2.18-1.01,3.19-1.01h18.25Z"/>
    <path class="cls-1" d="M91.65,120.61c.35-.62,.53-1.2,.53-1.73,0-1.15-.68-1.73-2.05-1.73-1.01,0-2.07,.34-3.19,1.01-1.11,.67-1.97,1.49-2.58,2.45l-16.83,27.67c-.56,.95-1.41,1.76-2.55,2.43s-2.2,1-3.16,1h-18.29c-1.42,0-2.13-.58-2.13-1.73,0-.53,.17-1.11,.52-1.73l16.88-27.65c.36-.62,.54-1.2,.54-1.73,0-1.15-.68-1.73-2.05-1.73-1.01,0-2.08,.34-3.19,1.01-1.12,.67-1.98,1.49-2.59,2.45l-16.88,27.65c-.56,.96-1.41,1.78-2.55,2.45-1.14,.67-2.19,1.01-3.15,1.01H13.63c-1.42,0-2.13-.58-2.13-1.73,0-.53,.18-1.1,.53-1.73l16.06-31.1c.56-.96,1.41-1.78,2.55-2.45s2.22-1.01,3.23-1.01H117.8c1.37,0,2.05,.58,2.05,1.73,0,.53-.18,1.11-.53,1.73l-35.27,57.89c-.76,1.25-1.57,1.87-2.43,1.87-.46,0-.81-.24-1.06-.72l-10.11-16.2c-.3-.53-.46-1.2-.46-2.02,0-1.2,.3-2.28,.91-3.24l20.75-34.13Z"/>
    <path class="cls-1" d="M136.52,140.44c-1.12,.67-1.95,1.48-2.51,2.44l-4.26,6.89c-.31,.63-.46,1.21-.46,1.75,0,1.17,.68,1.75,2.05,1.75,1.01,0,2.09-.33,3.23-1.01,1.14-.67,1.99-1.49,2.55-2.45l2.13-3.46c.56-.96,1.41-1.77,2.55-2.45,1.14-.67,2.22-1.01,3.23-1.01h18.25c1.37,0,2.05,.58,2.05,1.73,0,.53-.18,1.1-.53,1.73l-4.26,6.91c-.56,.96-1.41,1.78-2.55,2.45s-2.19,1.01-2.1,1.01h-51.09c-2.48,0-3.18-.58-3.18-1.73,0-.53,.18-1.1,.53-1.73l19.01-31.1c.56-.96,1.41-1.78,2.55-2.45s2.22-1.01,3.23-1.01h51.09c1.37,0,2.05,.58,2.05,1.73,0,.53-.18,1.11-.53,1.73l-8.45,13.82c-.56,.96-1.41,1.78-2.55,2.45-1.14,.67-2.22,1.01-3.24,1.01h-25.58c-1.02,0-2.08,.33-3.2,1Zm3.78-7.96c-.35,.63-.53,1.22-.53,1.75,0,1.17,.71,1.75,2.13,1.75,1.01,0,2.08-.34,3.19-1.01,1.11-.67,1.98-1.49,2.59-2.45l4.18-6.91c.35-.62,.53-1.2,.53-1.73,0-1.15-.69-1.73-2.06-1.73-1.02,0-2.08,.34-3.2,1-1.12,.67-1.98,1.48-2.59,2.44l-4.24,6.88Z"/>
    <path class="cls-1" d="M240.74,118.7c1.37,0,2.05,.58,2.05,1.73,0,.53-.18,1.11-.53,1.73l-4.26,6.91c-.56,.96-1.41,1.78-2.55,2.45-1.14,.67-2.19,1.01,.01,1.69h-15.87c-8.12,9.53-26.72,10.74-23.59-1,.11-.43,15.92-.95,15.92-1.41,0-.53,.18-1.1,.53-1.73l2.13-3.46c.35-.62,.53-1.2,.53-1.73,0-1.15-.68-1.73-2.05-1.73-1.01,0-2.08,.34-3.2,1.01-1.12,.67-1.98,1.49-2.59,2.45l-26.92,27.62c-.56,.97-1.4,1.79-2.54,2.47-1.14,.68-2.19,1.02-3.15,1.02h-8.21c-1.42,0-2.12-.58-2.12-1.73,0-.53,.18-1.1,.53-1.73l19.01-31.1c.56-.96,1.41-1.78,2.55-2.45s2.22-1.01,3.23-1.01h51.09Z"/>
    <path class="cls-1" d="M277.07,132.52c-1.42,0-2.13-.58-2.13-1.73,0-.53,.18-1.1,.53-1.73l2.13-3.46c.35-.62,.53-1.2,.53-1.73,0-1.15-.68-1.73-2.05-1.73-1.01,0-2.07,.34-3.19,1.01-1.11,.67-1.97,1.49-2.58,2.45l-14.75,24.19c-.36,.62-.54,1.2-.54,1.72,0,1.15,.68,1.72,2.05,1.72,1.01,0,6.31-.33,7.46-1.01,1.14-.67-2.23-1.49-1.68-2.45l6.32-10.36c.61-.96,1.47-1.78,2.58-2.45,1.11-.67,2.18-1.01,3.19-1.01h18.24c1.42,0,2.13,.58,2.13,1.73,0,.53-.2,1.1-.61,1.73l-8.44,13.82c-.56,.96-1.41,1.78-2.55,2.45s-2.19,1.01-3.16,1.01h-60.09c-1.42,0-2.13-.58-2.13-1.73,0-.53,.18-1.1,.53-1.73l28.01-31.1c.56-.96,1.41-1.78,2.55-2.45s2.22-1.01,3.23-1.01h51.09c1.37,0,2.05,.58,2.05,1.73,0,.53-.18,1.11-.53,1.73l-4.26,6.91c-.56,.96-1.41,1.78-2.55,2.45-1.14,.67-2.19,1.01-3.15,1.01h-18.25Z"/>
    <path class="cls-1" d="M357.26,118.7c1.37,0,2.05,.58,2.05,1.73,0,.53-.18,1.11-.53,1.73l-19.01,31.1c-.56,.96-1.29,3.27-2.43,3.94s-2.31-.49-3.28,0l-36.85-.51c-9.5,.51,16.47-.55,16.47-1.7,0-.53,.18-1.1,.53-1.73l16.88-27.65c.35-.62,.53-1.2,.53-1.73,0-1.15-.68-1.73-2.05-1.73-1.01,0-2.07,.34-3.19,1.01-1.11,.67-1.97,1.49-2.58,2.45l-16.88,27.65c-.56,.96-1.41,1.77-2.55,2.44-1.14,.67-2.19,1.01-3.16,1.01h-18.25c-1.42,0-2.13-.58-2.13-1.73,0-.53,.18-1.1,.53-1.73l35.35-57.89c.76-1.25,1.54-1.87,2.36-1.87,.46,0,.84,.22,2.28,.22l10.11,16.27c-.83,.9-.68,1.55-.68,2.37,0,1.2-.31,2.3-.91,3.31-.3,.48-.46,.94-.46,1.37,0,1.1,.76,1.66,2.28,1.66h25.54Z"/>
  </g>
  <g>
    <path class="cls-3" d="M133.99,20.96c.29,.48,.43,1.13,.43,1.94,0,1.2-.29,2.3-.86,3.31l-21.74,37.58c-.53,.96-1.33,1.78-2.41,2.45-1.08,.67-2.08,1.01-2.99,1.01H58.03c-1.34,0-2.02-.58-2.02-1.73,0-.53,.17-1.1,.5-1.73l18-31.1c.53-.96,1.33-1.78,2.41-2.45,1.08-.67,2.1-1.01,3.06-1.01h24.19c.91,0,1.89-.34,2.97-1.01,1.07-.68,1.87-1.5,2.4-2.46l11.56-19.85c.72-1.25,1.46-1.87,2.23-1.87,.43,0,.79,.22,1.08,.65l9.58,16.27Zm-30.37,15.2c.33-.63,.49-1.2,.49-1.73,0-1.15-.65-1.73-1.94-1.73-.96,0-1.96,.34-3.01,1.01-1.05,.68-1.87,1.49-2.44,2.46l-13.98,24.19c-.34,.62-.51,1.2-.51,1.72,0,1.15,.65,1.73,1.94,1.73,.96,0,1.98-.33,3.06-1.01,1.08-.67,1.88-1.49,2.41-2.45l13.98-24.19Z"/>
    <path class="cls-3" d="M148.76,50.98c-1.06,.67-1.85,1.48-2.38,2.44l-4.04,6.89c-.29,.63-.44,1.21-.44,1.75,0,1.17,.65,1.75,1.94,1.75,.96,0,1.98-.33,3.06-1.01,1.08-.67,1.88-1.49,2.41-2.45l2.02-3.46c.53-.96,1.33-1.77,2.41-2.45,1.08-.67,2.1-1.01,3.06-1.01h17.28c1.3,0,1.94,.58,1.94,1.73,0,.53-.17,1.1-.5,1.73l-4.03,6.91c-.53,.96-1.33,1.78-2.41,2.45-1.08,.67-2.08,1.01-2.99,1.01h-48.38c-1.34,0-2.02-.58-2.02-1.73,0-.53,.17-1.1,.5-1.73l18-31.1c.53-.96,1.33-1.78,2.41-2.45,1.08-.67,2.1-1.01,3.06-1.01h48.38c1.3,0,1.94,.58,1.94,1.73,0,.53-.17,1.1-.51,1.73l-8,13.82c-.53,.96-1.33,1.78-2.42,2.45-1.08,.67-2.1,1.01-3.06,1.01h-24.23c-.96,0-1.97,.33-3.03,1Zm3.58-7.96c-.33,.63-.5,1.22-.5,1.75,0,1.17,.67,1.75,2.02,1.75,.96,0,1.97-.34,3.02-1.01,1.06-.67,1.87-1.49,2.45-2.45l3.96-6.91c.33-.62,.5-1.2,.5-1.73,0-1.15-.65-1.73-1.95-1.73-.96,0-1.97,.34-3.03,1-1.06,.67-1.88,1.48-2.45,2.44l-4.01,6.88Z"/>
    <path class="cls-3" d="M222.18,43.06c-1.34,0-2.02-.58-2.02-1.73,0-.53,.17-1.1,.5-1.73l2.02-3.46c.34-.62,.5-1.2,.5-1.73,0-1.15-.65-1.73-1.94-1.73-.96,0-1.97,.34-3.03,1.01-1.06,.67-1.87,1.49-2.45,2.45l-4.01,6.88c-.35,.63-.52,1.21-.52,1.74,0,1.16,.67,1.75,2.02,1.75h24.19c1.34,0,2.02,.58,2.02,1.73,0,.53-.19,1.1-.58,1.73l-7.99,13.82c-.53,.96-1.33,1.78-2.41,2.45-1.08,.67-2.08,1.01-2.99,1.01h-48.38c-1.34,0-2.02-.58-2.02-1.73,0-.53,.17-1.1,.5-1.73l4.03-6.91c.53-.96,1.33-1.77,2.41-2.45,1.08-.67,2.1-1.01,3.06-1.01h17.28c1.3,0,1.94,.58,1.94,1.73,0,.53-.17,1.1-.5,1.73l-2.02,3.46c-.34,.62-.5,1.2-.5,1.73,0,1.15,.65,1.73,1.94,1.73,.96,0,1.98-.33,3.06-1.01,1.08-.67,1.88-1.49,2.41-2.45l4.03-6.91c.33-.62,.5-1.2,.5-1.73,0-1.15-.67-1.73-2.02-1.73h-24.19c-1.3,0-1.94-.58-1.94-1.73,0-.53,.17-1.1,.5-1.73l7.99-13.82c.53-.96,1.33-1.78,2.41-2.45,1.08-.67,2.1-1.01,3.06-1.01h48.38c1.3,0,1.94,.58,1.94,1.73,0,.53-.17,1.1-.5,1.73l-4.03,6.91c-.53,.96-1.33,1.78-2.41,2.45-1.08,.67-2.08,1.01-2.99,1.01h-17.28Z"/>
    <path class="cls-3" d="M236.15,67.25c-1.34,0-2.02-.58-2.02-1.73,0-.53,.17-1.1,.5-1.73l18-31.1c.53-.96,1.33-1.78,2.41-2.45,1.08-.67,2.1-1.01,3.06-1.01h17.28c1.3,0,1.94,.58,1.94,1.73,0,.53-.17,1.1-.5,1.73l-18,31.1c-.53,.96-1.33,1.78-2.41,2.45-1.08,.67-2.08,1.01-2.99,1.01h-17.28Z"/>
    <path class="cls-3" d="M280.93,90.53c-.29-.53-.43-1.2-.43-2.02,0-1.2,9.29-17.28,9.86-18.24,.24-.48,.36-.94,.36-1.37,0-1.1-.7-1.66-2.09-1.66h-24.19c-1.34,0-2.02-.58-2.02-1.73,0-.53,.17-1.1,.5-1.73l18-31.1c.53-.96,1.33-1.78,2.41-2.45,1.08-.67,2.1-1.01,3.06-1.01h48.38c1.3,0,1.94,.58,1.94,1.73,0,.53-.17,1.1-.5,1.73l-4.03,6.91c-.53,.96-1.33,1.78-2.41,2.45-1.08,.67-2.08,2.01-2.99,2.01l-17.28-1c-1.34,0-2.02-.58-2.02-1.73,0-.53,.17-1.1,.5-1.73l2.01-3.46c.34-.62,.51-1.2,.51-1.72,0-1.15-.65-1.72-1.94-1.72-.96,0-1.97,.34-3.03,1.01-1.06,.67-1.87,1.49-2.45,2.45l-13.97,24.19c-.34,.62-.5,1.2-.5,1.73,0,1.15,.65,1.73,1.94,1.73,.96,0,1.98-.34,3.05-1.01,1.08-.67,1.88-1.49,2.41-2.45l5.98-10.36c.58-.96,1.39-1.77,2.45-2.45,1.06-.67,2.06-1.01,3.02-1.01h17.28c1.34,0,2.02,.58,2.02,1.73,0,.53-.19,1.1-.58,1.73l-32.4,55.61c-.72,1.25-1.49,1.87-2.3,1.87-.43,0-.77-.24-1.01-.72l-9.58-16.2Z"/>
    <path class="cls-3" d="M393.91,29.24c1.3,0,1.95,.58,1.95,1.73,0,.53-.17,1.1-.5,1.73l-18,31.1c-.53,.96-1.33,1.78-2.41,2.45-1.08,.67-2.08,1.01-2.99,1.01h-17.28c-1.34,0-2.02-.58-2.02-1.73,0-.53,.17-1.1,.5-1.73l15.98-27.65c.34-.62,.5-1.2,.5-1.73,0-1.15-.65-1.73-1.94-1.73-.96,0-1.97,.34-3.02,1.01-1.06,.67-1.87,1.49-2.45,2.45l-15.98,27.65c-.53,.96-1.33,1.77-2.41,2.44-1.08,.67-2.08,1.01-2.99,1.01h-17.29c-1.34,0-2.02-.58-2.02-1.73,0-.53,.17-1.1,.5-1.73l18-31.1c.53-.96,1.33-1.78,2.41-2.45,1.08-.67,2.1-1.01,3.06-1.01h48.38Z"/>
    <path class="cls-3" d="M133.24,69.24c1.3,0,1.94,.58,1.94,1.73,0,.53-.17,1.1-.5,1.73l-18,31.1c-.53,.96-1.33,1.78-2.41,2.45-1.08,.67-2.08,1.01-2.99,1.01h-17.28c-1.34,0-2.02-.58-2.02-1.73,0-.53,.17-1.1,.5-1.73l15.98-27.65c.34-.62,.5-1.2,.5-1.73,0-1.15-.65-1.73-1.94-1.73-.96,0-1.97,.34-3.02,1.01-1.06,.67-1.87,1.49-2.45,2.45l-15.98,27.65c-.53,.96-1.33,1.77-2.41,2.44-1.08,.67-2.08,1.01-2.99,1.01h-17.29c-1.34,0-2.02-.58-2.02-1.73,0-.53,.17-1.1,.5-1.73l18-31.1c.53-.96,1.33-1.78,2.41-2.45,1.08-.67,2.1-1.01,3.06-1.01h48.38Z"/>
    <path class="cls-3" d="M153.98,90.98c-1.06,.67-1.85,1.48-2.38,2.44l-4.04,6.89c-.29,.63-.44,1.21-.44,1.75,0,1.17,.65,1.75,1.94,1.75,.96,0,1.98-.33,3.06-1.01,1.08-.67,1.88-1.49,2.41-2.45l2.02-3.46c.53-.96,1.33-1.77,2.41-2.45,1.08-.67,2.1-1.01,3.06-1.01h17.28c1.3,0,1.94,.58,1.94,1.73,0,.53-.17,1.1-.5,1.73l-4.03,6.91c-.53,.96-1.33,1.78-2.41,2.45-1.08,.67-2.08,1.01-2.99,1.01h-48.38c-1.34,0-2.02-.58-2.02-1.73,0-.53,.17-1.1,.5-1.73l18-31.1c.53-.96,1.33-1.78,2.41-2.45,1.08-.67,2.1-1.01,3.06-1.01h48.38c1.29,0,1.94,.58,1.94,1.73,0,.53-.17,1.1-.51,1.73l-8,13.82c-.53,.96-1.33,1.78-2.42,2.45-1.08,.67-2.1,1.01-3.06,1.01h-24.23c-.96,0-1.97,.33-3.03,1Zm3.58-7.96c-.33,.63-.5,1.22-.5,1.75,0,1.17,.67,1.75,2.02,1.75,.96,0,1.97-.34,3.02-1.01,1.06-.67,1.87-1.49,2.45-2.45l3.96-6.91c.33-.62,.5-1.2,.5-1.73,0-1.15-.65-1.73-1.95-1.73-.96,0-1.97,.34-3.03,1-1.06,.67-1.88,1.48-2.45,2.44l-4.01,6.88Z"/>
    <path class="cls-3" d="M283.56,69.24c1.34,0,2.02,.58,2.02,1.73,0,.53-.19,1.1-.58,1.73l-17.93,31.1c-.53,.96-1.33,1.78-2.41,2.45-1.08,.67-2.1,1.01-3.06,1.01h-58.68l-10.94-18.5c-.24-.43-.36-1.03-.36-1.8,0-1.34,.36-2.64,1.08-3.89l5.98-10.37c.53-.96,1.33-1.78,2.41-2.45,1.08-.67,2.1-1.01,3.06-1.01h17.28c1.3,0,1.94,.58,1.94,1.73,0,.53-.17,1.1-.5,1.73l-15.98,27.65c-.34,.62-.5,1.2-.5,1.73,0,1.15,.65,1.73,1.94,1.73,.96,0,1.98-.34,3.06-1.01,1.08-.67,1.88-1.49,2.41-2.45l15.98-27.65c.53-.96,1.33-1.77,2.41-2.44,1.08-.67,2.1-1.01,3.06-1.01h17.29c1.3,0,1.94,.57,1.94,1.72,0,.53-.18,1.1-.54,1.72l-15.93,27.68c-.34,.62-.52,1.2-.52,1.72,0,1.15,.65,1.72,1.94,1.72,.96,0,1.97-.33,3.02-1.01,1.06-.67,1.87-1.49,2.45-2.45l15.91-27.65c.58-.96,1.39-1.78,2.45-2.45,1.05-.67,2.06-1.01,3.02-1.01h17.28Z"/>
    <path class="cls-3" d="M85.85,116.15c.34-.62,.5-1.2,.5-1.73,0-1.15-.65-1.73-1.94-1.73-.96,0-1.96,.34-3.02,1.01-1.05,.67-1.87,1.49-2.44,2.45l-15.94,27.67c-.53,.95-1.34,1.76-2.42,2.43s-2.08,1-2.99,1h-17.32c-1.35,0-2.02-.58-2.02-1.73,0-.53,.17-1.11,.5-1.73l15.98-27.65c.34-.62,.51-1.2,.51-1.73,0-1.15-.65-1.73-1.94-1.73-.96,0-1.97,.34-3.02,1.01-1.06,.67-1.87,1.49-2.45,2.45l-15.98,27.65c-.53,.96-1.33,1.78-2.41,2.45-1.08,.67-2.08,1.01-2.99,1.01H9.17c-1.34,0-2.02-.58-2.02-1.73,0-.53,.17-1.1,.5-1.73l18-31.1c.53-.96,1.33-1.78,2.41-2.45s2.1-1.01,3.06-1.01H110.61c1.3,0,1.94,.58,1.94,1.73,0,.53-.17,1.11-.5,1.73l-33.41,57.89c-.72,1.25-1.49,1.87-2.3,1.87-.43,0-.77-.24-1.01-.72l-9.58-16.2c-.29-.53-.43-1.2-.43-2.02,0-1.2,.29-2.28,.87-3.24l19.65-34.13Z"/>
    <path class="cls-3" d="M130.35,131.98c-1.06,.67-1.85,1.48-2.38,2.44l-4.04,6.89c-.29,.63-.44,1.21-.44,1.75,0,1.17,.65,1.75,1.94,1.75,.96,0,1.98-.33,3.06-1.01,1.08-.67,1.88-1.49,2.41-2.45l2.02-3.46c.53-.96,1.33-1.77,2.41-2.45,1.08-.67,2.1-1.01,3.06-1.01h17.28c1.3,0,1.94,.58,1.94,1.73,0,.53-.17,1.1-.5,1.73l-4.03,6.91c-.53,.96-1.33,1.78-2.41,2.45s-2.08,1.01-2.99,1.01h-48.38c-1.34,0-2.02-.58-2.02-1.73,0-.53,.17-1.1,.5-1.73l18-31.1c.53-.96,1.33-1.78,2.41-2.45s2.1-1.01,3.06-1.01h48.38c1.3,0,1.94,.58,1.94,1.73,0,.53-.17,1.11-.51,1.73l-8,13.82c-.53,.96-1.33,1.78-2.42,2.45-1.08,.67-2.1,1.01-3.06,1.01h-24.23c-.96,0-1.97,.33-3.03,1Zm3.58-7.96c-.33,.63-.5,1.22-.5,1.75,0,1.17,.67,1.75,2.02,1.75,.96,0,1.97-.34,3.02-1.01,1.06-.67,1.87-1.49,2.45-2.45l3.96-6.91c.33-.62,.5-1.2,.5-1.73,0-1.15-.65-1.73-1.95-1.73-.96,0-1.97,.34-3.03,1-1.06,.67-1.88,1.48-2.45,2.44l-4.01,6.88Z"/>
    <path class="cls-3" d="M229.04,110.24c1.29,0,1.94,.58,1.94,1.73,0,.53-.17,1.11-.5,1.73l-4.03,6.91c-.53,.96-1.33,1.78-2.41,2.45-1.08,.67-2.08,1.01-2.99,1.01h-17.28c-1.34,0-2.02-.58-2.02-1.73,0-.53,.17-1.1,.5-1.73l2.02-3.46c.34-.62,.5-1.2,.5-1.73,0-1.15-.65-1.73-1.94-1.73-.96,0-1.97,.34-3.03,1.01-1.06,.67-1.87,1.49-2.45,2.45l-16.03,27.62c-.53,.97-1.33,1.79-2.41,2.47-1.08,.68-2.07,1.02-2.98,1.02h-17.25c-1.34,0-2.01-.58-2.01-1.73,0-.53,.17-1.1,.5-1.73l18-31.1c.53-.96,1.33-1.78,2.41-2.45s2.1-1.01,3.06-1.01h48.38Z"/>
    <path class="cls-3" d="M263.45,124.06c-1.34,0-2.02-.58-2.02-1.73,0-.53,.17-1.1,.5-1.73l2.02-3.46c.34-.62,.5-1.2,.5-1.73,0-1.15-.65-1.73-1.94-1.73-.96,0-1.96,.34-3.02,1.01-1.05,.67-1.87,1.49-2.44,2.45l-13.97,24.19c-.34,.62-.51,1.2-.51,1.72,0,1.15,.65,1.72,1.94,1.72,.96,0,1.98-.33,3.06-1.01,1.08-.67,1.88-1.49,2.41-2.45l5.98-10.36c.58-.96,1.39-1.78,2.45-2.45,1.06-.67,2.06-1.01,3.02-1.01h17.28c1.34,0,2.02,.58,2.02,1.73,0,.53-.19,1.1-.58,1.73l-7.99,13.82c-.53,.96-1.33,1.78-2.41,2.45s-2.08,1.01-2.99,1.01h-48.38c-1.34,0-2.02-.58-2.02-1.73,0-.53,.17-1.1,.5-1.73l18-31.1c.53-.96,1.33-1.78,2.41-2.45s2.1-1.01,3.06-1.01h48.38c1.3,0,1.94,.58,1.94,1.73,0,.53-.17,1.11-.5,1.73l-4.03,6.91c-.53,.96-1.33,1.78-2.41,2.45-1.08,.67-2.08,1.01-2.99,1.01h-17.28Z"/>
    <path class="cls-3" d="M348.4,109.24c1.3,0,1.94,.58,1.94,1.73,0,.53-.17,1.11-.5,1.73l-18,31.1c-.53,.96-1.33,1.78-2.41,2.45s-2.08,1.01-2.99,1.01h-17.28c-1.34,0-2.02-.58-2.02-1.73,0-.53,.17-1.1,.5-1.73l15.98-27.65c.34-.62,.5-1.2,.5-1.73,0-1.15-.65-1.73-1.94-1.73-.96,0-1.96,.34-3.02,1.01-1.06,.67-1.87,1.49-2.44,2.45l-15.98,27.65c-.53,.96-1.33,1.77-2.41,2.44-1.08,.67-2.08,1.01-2.99,1.01h-17.29c-1.34,0-2.02-.58-2.02-1.73,0-.53,.17-1.1,.5-1.73l33.48-57.89c.72-1.25,1.46-1.87,2.23-1.87,.43,0,.79,.22,1.08,.65l9.58,16.27c.29,.48,.43,1.13,.43,1.94,0,1.2-.29,2.3-.86,3.31-.29,.48-.43,.94-.43,1.37,0,1.1,.72,1.66,2.16,1.66h24.19Z"/>
  </g>
  <path class="cls-2" d="M351.2,111.6l3.07,8.52c.14,.38,.44,.68,.82,.82l8.52,3.07c1.19,.43,1.19,2.12,0,2.55l-8.52,3.07c-.38,.14-.68,.44-.82,.82l-3.07,8.52c-.43,1.19-2.12,1.19-2.55,0l-3.07-8.52c-.14-.38-.44-.68-.82-.82l-8.52-3.07c-1.19-.43-1.19-2.12,0-2.55l8.52-3.07c.38-.14,.68-.44,.82-.82l3.07-8.52c.43-1.19,2.12-1.19,2.55,0Z"/>
  <path class="cls-2" d="M365.19,90.39l3.07,8.52c.14,.38,.44,.68,.82,.82l8.52,3.07c1.19,.43,1.19,2.12,0,2.55l-8.52,3.07c-.38,.14-.68,.44-.82,.82l-3.07,8.52c-.43,1.19-2.12,1.19-2.55,0l-3.07-8.52c-.14-.38-.44-.68-.82-.82l-8.52-3.07c-1.19-.43-1.19-2.12,0-2.55l8.52-3.07c.38-.14,.68-.44,.82-.82l3.07-8.52c.43-1.19,2.12-1.19,2.55,0Z"/>
  <path class="cls-2" d="M380.19,68.39l3.07,8.52c.14,.38,.44,.68,.82,.82l8.52,3.07c1.19,.43,1.19,2.12,0,2.55l-8.52,3.07c-.38,.14-.68,.44-.82,.82l-3.07,8.52c-.43,1.19-2.12,1.19-2.55,0l-3.07-8.52c-.14-.38-.44-.68-.82-.82l-8.52-3.07c-1.19-.43-1.19-2.12,0-2.55l8.52-3.07c.38-.14,.68-.44,.82-.82l3.07-8.52c.43-1.19,2.12-1.19,2.55,0Z"/>
</svg>